<svg width="256" height="174" viewBox="0 0 256 174" fill="none" xmlns="http://www.w3.org/2000/svg">
<path d="M244 111.877C244 98.6882 236.89 87.0686 226.159 80.3343C230.569 74.5079 233.179 67.3517 233.179 59.6185C233.179 46.2636 225.414 34.617 213.987 28.6036V15.7982C213.987 10.0606 209.136 5.4097 203.152 5.4097C197.168 5.4097 192.317 10.0606 192.317 15.7982V24.2628H179.24V15.7982C179.24 10.0606 174.389 5.4097 168.404 5.4097C162.42 5.4097 157.569 10.0606 157.569 15.7982V24.2628H144.835C138.851 24.2628 134 28.9137 134 34.6513C134 40.3889 138.851 45.0398 144.835 45.0398H148.575V84.5863V128.78H144.835C138.851 128.78 134 133.431 134 139.168C134 144.906 138.851 149.557 144.835 149.557H157.569V158.021C157.569 163.759 162.42 168.41 168.404 168.41C174.389 168.41 179.24 163.759 179.24 158.021V149.557H192.317V158.021C192.317 163.759 197.168 168.41 203.152 168.41C209.136 168.41 213.987 163.759 213.987 158.021V148.485C231.188 144.472 244 129.586 244 111.877ZM170.246 45.0398H196.302C204.687 45.0398 211.508 51.5799 211.508 59.6185C211.508 67.6572 204.687 74.1973 196.302 74.1973H170.246V45.0398ZM204.7 128.78H170.245V94.9748H196.302H204.7C214.42 94.9748 222.329 102.557 222.329 111.877C222.329 121.198 214.421 128.78 204.7 128.78Z" fill="#F68E00"/>
<path d="M252.32 111.705C252.32 98.563 245.528 86.9847 235.275 80.2742C239.488 74.4685 241.982 67.3378 241.982 59.632C241.982 46.3244 234.564 34.7192 223.647 28.7272V15.9672C223.647 10.25 219.013 5.61557 213.296 5.61557C207.578 5.61557 202.944 10.25 202.944 15.9672V24.4017H190.451V15.9672C190.451 10.25 185.816 5.61557 180.099 5.61557C174.382 5.61557 169.747 10.25 169.747 15.9672V24.4017H157.582C151.865 24.4017 147.23 29.0362 147.23 34.7534C147.23 40.4706 151.865 45.105 157.582 45.105H161.154V84.5111V128.548H157.582C151.865 128.548 147.23 133.182 147.23 138.899C147.23 144.616 151.865 149.251 157.582 149.251H169.747V157.685C169.747 163.403 174.382 168.037 180.099 168.037C185.816 168.037 190.451 163.403 190.451 157.685V149.251H202.944V157.685C202.944 163.403 207.578 168.037 213.296 168.037C219.013 168.037 223.647 163.403 223.647 157.685V148.183C240.081 144.184 252.32 129.351 252.32 111.705ZM181.858 45.105H206.752C214.762 45.105 221.279 51.6219 221.279 59.632C221.279 67.6421 214.762 74.159 206.752 74.159H181.858V45.105ZM214.775 128.548H181.858V94.8628H206.752H214.775C224.061 94.8628 231.617 102.418 231.617 111.705C231.617 120.992 224.061 128.548 214.775 128.548Z" fill="#FFEA94"/>
<path d="M213.093 170.185C205.245 170.185 198.86 163.8 198.86 155.952V151.399H194.13V155.952C194.13 163.8 187.745 170.185 179.897 170.185C172.049 170.185 165.663 163.8 165.663 155.952V151.399H157.38C149.532 151.399 143.146 145.014 143.146 137.166C143.146 129.42 149.365 123.101 157.07 122.935V118.827C157.07 116.683 158.808 114.945 160.952 114.945C163.097 114.945 164.834 116.683 164.834 118.827V126.813C164.834 128.957 163.097 130.695 160.952 130.695H157.38C153.812 130.695 150.91 133.597 150.91 137.165C150.91 140.733 153.812 143.635 157.38 143.635H169.545C171.689 143.635 173.427 145.373 173.427 147.517V155.951C173.427 159.519 176.329 162.421 179.897 162.421C183.464 162.421 186.367 159.519 186.367 155.951V147.517C186.367 145.373 188.104 143.635 190.248 143.635H202.742C204.886 143.635 206.624 145.373 206.624 147.517V155.951C206.624 159.519 209.526 162.421 213.093 162.421C216.661 162.421 219.563 159.519 219.563 155.951V146.448C219.563 144.658 220.788 143.1 222.527 142.676C237.665 138.994 248.236 125.545 248.236 109.971C248.236 98.5901 242.521 88.0542 232.947 81.7883C232.059 81.2066 231.447 80.2863 231.255 79.2418C231.063 78.1974 231.308 77.1198 231.931 76.2606C235.835 70.8813 237.898 64.5316 237.898 57.8983C237.898 46.4602 231.644 35.9223 221.578 30.3966C220.335 29.7149 219.563 28.4106 219.563 26.9935V14.2335C219.563 10.6658 216.661 7.76373 213.093 7.76373C209.526 7.76373 206.624 10.6658 206.624 14.2335V22.668C206.624 24.8119 204.886 26.5499 202.742 26.5499H190.248C188.104 26.5499 186.367 24.8119 186.367 22.668V14.2335C186.367 10.6658 183.464 7.76373 179.897 7.76373C176.329 7.76373 173.427 10.6658 173.427 14.2335V22.668C173.427 24.8119 171.689 26.5499 169.545 26.5499H157.38C153.812 26.5499 150.91 29.452 150.91 33.0197C150.91 36.5874 153.812 39.4895 157.38 39.4895H160.952C163.097 39.4895 164.834 41.2275 164.834 43.3713V103.299C164.834 105.443 163.097 107.181 160.952 107.181C158.808 107.181 157.07 105.443 157.07 103.299V47.2501C149.364 47.085 143.146 40.7648 143.146 33.0197C143.146 25.1711 149.532 18.7862 157.38 18.7862H165.663V14.2335C165.663 6.38489 172.049 0 179.897 0C187.745 0 194.13 6.38489 194.13 14.2335V18.7862H198.86V14.2335C198.86 6.38489 205.245 0 213.093 0C220.942 0 227.327 6.38489 227.327 14.2335V24.7751C238.693 31.9198 245.662 44.406 245.662 57.8988C245.662 64.8774 243.834 71.6034 240.344 77.5638C250.212 85.4062 256 97.2584 256 109.972C256 128.104 244.356 143.895 227.328 149.384V155.952C227.327 163.8 220.942 170.185 213.093 170.185ZM214.572 130.696H181.656C179.511 130.696 177.774 128.958 177.774 126.814V93.1291C177.774 90.9853 179.511 89.2472 181.656 89.2472H214.572C225.999 89.2472 235.296 98.544 235.296 109.972C235.296 121.399 226 130.696 214.572 130.696ZM185.538 122.932H214.573C221.719 122.932 227.533 117.118 227.533 109.971C227.533 102.824 221.719 97.0104 214.573 97.0104H185.538V122.932V122.932ZM206.549 76.3077H181.656C179.511 76.3077 177.774 74.5696 177.774 72.4258V43.3713C177.774 41.2275 179.511 39.4895 181.656 39.4895H206.549C216.7 39.4895 224.958 47.748 224.958 57.8983C224.958 68.0486 216.7 76.3077 206.549 76.3077ZM185.538 68.5439H206.55C212.42 68.5439 217.195 63.7682 217.195 57.8988C217.195 52.0294 212.419 47.2537 206.55 47.2537H185.538V68.5439Z" fill="black"/>
<path d="M10.4397 134.41V56.9097H71.9747C75.0747 56.9097 77.7097 58.0464 79.8797 60.3197C82.0497 62.4897 83.1347 65.1247 83.1347 68.2247V134.41H68.7197V77.0597C68.7197 75.5097 68.1514 74.218 67.0147 73.1847C65.878 72.048 64.5347 71.4797 62.9847 71.4797H54.1497V134.41H39.5797V77.0597C39.5797 75.5097 39.0114 74.218 37.8747 73.1847C36.738 72.048 35.3947 71.4797 33.8447 71.4797H25.0097V134.41H10.4397ZM92.9881 134.41V56.9097H125.383C128.483 56.9097 131.118 58.0464 133.288 60.3197C135.561 62.4897 136.698 65.1247 136.698 68.2247V85.1197L122.128 81.8647V77.2147C122.128 75.6647 121.56 74.3214 120.423 73.1847C119.39 72.048 118.098 71.4797 116.548 71.4797H107.558V134.41H92.9881Z" fill="#FFEA94"/>
<path d="M10.4397 134.41H6.43969V138.41H10.4397V134.41ZM10.4397 56.9097V52.9097H6.43969V56.9097H10.4397ZM79.8797 60.3197L76.9863 63.0816L77.0184 63.1152L77.0513 63.1481L79.8797 60.3197ZM83.1347 134.41V138.41H87.1347V134.41H83.1347ZM68.7197 134.41H64.7197V138.41H68.7197V134.41ZM67.0147 73.1847L64.1863 76.0131L64.2536 76.0804L64.324 76.1445L67.0147 73.1847ZM54.1497 71.4797V67.4797H50.1497V71.4797H54.1497ZM54.1497 134.41V138.41H58.1497V134.41H54.1497ZM39.5797 134.41H35.5797V138.41H39.5797V134.41ZM37.8747 73.1847L35.0463 76.0131L35.1136 76.0804L35.184 76.1445L37.8747 73.1847ZM25.0097 71.4797V67.4797H21.0097V71.4797H25.0097ZM25.0097 134.41V138.41H29.0097V134.41H25.0097ZM14.4397 134.41V56.9097H6.43969V134.41H14.4397ZM10.4397 60.9097H71.9747V52.9097H10.4397V60.9097ZM71.9747 60.9097C73.9646 60.9097 75.5593 61.5867 76.9863 63.0816L82.7731 57.5578C79.8601 54.5061 76.1848 52.9097 71.9747 52.9097V60.9097ZM77.0513 63.1481C78.4626 64.5595 79.1347 66.1735 79.1347 68.2247H87.1347C87.1347 64.0759 85.6368 60.4199 82.7081 57.4913L77.0513 63.1481ZM79.1347 68.2247V134.41H87.1347V68.2247H79.1347ZM83.1347 130.41H68.7197V138.41H83.1347V130.41ZM72.7197 134.41V77.0597H64.7197V134.41H72.7197ZM72.7197 77.0597C72.7197 74.3943 71.6845 72.0241 69.7054 70.2249L64.324 76.1445C64.6182 76.4119 64.7197 76.6251 64.7197 77.0597H72.7197ZM69.8431 70.3563C67.9874 68.5005 65.6387 67.4797 62.9847 67.4797V75.4797C63.4307 75.4797 63.7687 75.5955 64.1863 76.0131L69.8431 70.3563ZM62.9847 67.4797H54.1497V75.4797H62.9847V67.4797ZM50.1497 71.4797V134.41H58.1497V71.4797H50.1497ZM54.1497 130.41H39.5797V138.41H54.1497V130.41ZM43.5797 134.41V77.0597H35.5797V134.41H43.5797ZM43.5797 77.0597C43.5797 74.3943 42.5445 72.0241 40.5654 70.2249L35.184 76.1445C35.4782 76.4119 35.5797 76.6251 35.5797 77.0597H43.5797ZM40.7031 70.3563C38.8474 68.5005 36.4987 67.4797 33.8447 67.4797V75.4797C34.2907 75.4797 34.6287 75.5955 35.0463 76.0131L40.7031 70.3563ZM33.8447 67.4797H25.0097V75.4797H33.8447V67.4797ZM21.0097 71.4797V134.41H29.0097V71.4797H21.0097ZM25.0097 130.41H10.4397V138.41H25.0097V130.41ZM92.9881 134.41H88.9881V138.41H92.9881V134.41ZM92.9881 56.9097V52.9097H88.9881V56.9097H92.9881ZM133.288 60.3197L130.395 63.0816L130.459 63.1489L130.526 63.2131L133.288 60.3197ZM136.698 85.1197L135.826 89.0235L140.698 90.1119V85.1197H136.698ZM122.128 81.8647H118.128V85.0697L121.256 85.7685L122.128 81.8647ZM120.423 73.1847L117.463 75.8754L117.527 75.9458L117.595 76.0131L120.423 73.1847ZM107.558 71.4797V67.4797H103.558V71.4797H107.558ZM107.558 134.41V138.41H111.558V134.41H107.558ZM96.9881 134.41V56.9097H88.9881V134.41H96.9881ZM92.9881 60.9097H125.383V52.9097H92.9881V60.9097ZM125.383 60.9097C127.373 60.9097 128.968 61.5867 130.395 63.0816L136.182 57.5578C133.269 54.5061 129.593 52.9097 125.383 52.9097V60.9097ZM130.526 63.2131C132.021 64.6401 132.698 66.2348 132.698 68.2247H140.698C140.698 64.0146 139.102 60.3393 136.05 57.4263L130.526 63.2131ZM132.698 68.2247V85.1197H140.698V68.2247H132.698ZM137.57 81.2159L123 77.9609L121.256 85.7685L135.826 89.0235L137.57 81.2159ZM126.128 81.8647V77.2147H118.128V81.8647H126.128ZM126.128 77.2147C126.128 74.5607 125.107 72.212 123.252 70.3563L117.595 76.0131C118.012 76.4307 118.128 76.7687 118.128 77.2147H126.128ZM123.383 70.494C121.584 68.5149 119.213 67.4797 116.548 67.4797V75.4797C116.983 75.4797 117.196 75.5812 117.463 75.8754L123.383 70.494ZM116.548 67.4797H107.558V75.4797H116.548V67.4797ZM103.558 71.4797V134.41H111.558V71.4797H103.558ZM107.558 130.41H92.9881V138.41H107.558V130.41Z" fill="black"/>
</svg>
